HIERARCHY
ROOT pelvis
{
OFFSET 0 0 0
CHANNELS 6 Xrotation Yrotation Zrotation Xposition Yposition Zposition 
JOINT lfemur
{
OFFSET 0 96.711 0
CHANNELS 3 Xrotation Yrotation Zrotation 
JOINT ltibia
{
OFFSET 0 0 -400.394
CHANNELS 3 Xrotation Yrotation Zrotation 
JOINT lfoot
{
OFFSET 0 0 -397.564
CHANNELS 3 Xrotation Yrotation Zrotation 
JOINT ltoes
{
OFFSET 91.659 0 0
CHANNELS 3 Xrotation Yrotation Zrotation 
End Site
{
OFFSET 0 0 0
}
}
}
}
}
JOINT rfemur
{
OFFSET 0 -96.711 0
CHANNELS 3 Xrotation Yrotation Zrotation 
JOINT rtibia
{
OFFSET 0 0 -400.394
CHANNELS 3 Xrotation Yrotation Zrotation 
JOINT rfoot
{
OFFSET 0 0 -397.564
CHANNELS 3 Xrotation Yrotation Zrotation 
JOINT rtoes
{
OFFSET 91.659 0 0
CHANNELS 3 Xrotation Yrotation Zrotation 
End Site
{
OFFSET 0 0 0
}
}
}
}
}
JOINT thorax
{
OFFSET -0 0 150.555
CHANNELS 3 Xrotation Yrotation Zrotation 
JOINT head
{
OFFSET 0 0 364.332
CHANNELS 3 Xrotation Yrotation Zrotation 
End Site
{
OFFSET 0 0 0
}
}
JOINT lclavicle
{
OFFSET 0 0 298.293
CHANNELS 3 Xrotation Yrotation Zrotation 
JOINT lhumerus
{
OFFSET 0 153.424 -16.4259
CHANNELS 3 Xrotation Yrotation Zrotation 
JOINT lradius
{
OFFSET 0 0 -263.893
CHANNELS 3 Xrotation Yrotation Zrotation 
JOINT lhand
{
OFFSET 0 0 -204.185
CHANNELS 3 Xrotation Yrotation Zrotation 
JOINT Left-hand
{
OFFSET 0 0 0
CHANNELS 3 Xrotation Yrotation Zrotation 
JOINT LThumb
{
OFFSET 5 0 10
CHANNELS 3 Xrotation Yrotation Zrotation 
JOINT LThumb_CARPE
{
OFFSET 0 0 0
CHANNELS 3 Xrotation Yrotation Zrotation 
JOINT LThumb_TM
{
OFFSET 0 10 0
CHANNELS 3 Xrotation Zrotation Xrotation 
JOINT LThumb_MCP
{
OFFSET 45 0 0
CHANNELS 3 Xrotation Yrotation Zrotation 
JOINT LThumb_IP
{
OFFSET 40 0 0
CHANNELS 3 Xrotation Yrotation Zrotation 
End Site
{
OFFSET 35 0 0
}
}
}
}
}
}
JOINT LIndex
{
OFFSET 5 0 10
CHANNELS 3 Xrotation Yrotation Zrotation 
JOINT LIndex_MCP
{
OFFSET 90 0 0
CHANNELS 3 Xrotation Yrotation Zrotation 
JOINT LIndex_IPP
{
OFFSET 45 0 0
CHANNELS 3 Xrotation Yrotation Zrotation 
JOINT LIndex_IDP
{
OFFSET 28 0 0
CHANNELS 3 Xrotation Yrotation Zrotation 
End Site
{
OFFSET 25 0 0
}
}
}
}
}
JOINT LMiddle
{
OFFSET 5 3 -0
CHANNELS 3 Xrotation Yrotation Zrotation 
JOINT LMiddle_MCP
{
OFFSET 95 0 0
CHANNELS 3 Xrotation Yrotation Zrotation 
JOINT LMiddle_IPP
{
OFFSET 55 0 0
CHANNELS 3 Xrotation Yrotation Zrotation 
JOINT LMiddle_IDP
{
OFFSET 30 0 0
CHANNELS 3 Xrotation Yrotation Zrotation 
End Site
{
OFFSET 25 0 0
}
}
}
}
}
JOINT LRing
{
OFFSET 5 3 -10
CHANNELS 3 Xrotation Yrotation Zrotation 
JOINT LRing_MCP
{
OFFSET 90 0 0
CHANNELS 3 Xrotation Yrotation Zrotation 
JOINT LRing_IPP
{
OFFSET 50 0 0
CHANNELS 3 Xrotation Yrotation Zrotation 
JOINT LRing_IDP
{
OFFSET 30 0 0
CHANNELS 3 Xrotation Yrotation Zrotation 
End Site
{
OFFSET 25 0 0
}
}
}
}
}
JOINT LLittle
{
OFFSET 5 0 -20
CHANNELS 3 Xrotation Yrotation Zrotation 
JOINT LLittle_MCP
{
OFFSET 85 0 0
CHANNELS 3 Xrotation Yrotation Zrotation 
JOINT LLittle_IPP
{
OFFSET 40 0 0
CHANNELS 3 Xrotation Yrotation Zrotation 
JOINT LLittle_IDP
{
OFFSET 25 0 0
CHANNELS 3 Xrotation Yrotation Zrotation 
End Site
{
OFFSET 25 0 0
}
}
}
}
}
}
}
}
}
}
JOINT rclavicle
{
OFFSET 0 0 298.293
CHANNELS 3 Xrotation Yrotation Zrotation 
JOINT rhumerus
{
OFFSET 0 -153.424 -16.4259
CHANNELS 3 Xrotation Yrotation Zrotation 
JOINT rradius
{
OFFSET 0 0 -263.893
CHANNELS 3 Xrotation Yrotation Zrotation 
JOINT rhand
{
OFFSET 0 0 -204.185
CHANNELS 3 Xrotation Yrotation Zrotation 
JOINT Right-hand
{
OFFSET 0 0 0
CHANNELS 3 Xrotation Yrotation Zrotation 
JOINT RThumb
{
OFFSET 5 0 -10
CHANNELS 3 Xrotation Yrotation Zrotation 
JOINT RThumb_CARPE
{
OFFSET 0 0 0
CHANNELS 3 Xrotation Yrotation Zrotation 
JOINT RThumb_TM
{
OFFSET 0 10 0
CHANNELS 3 Xrotation Zrotation Xrotation 
JOINT RThumb_MCP
{
OFFSET 45 0 0
CHANNELS 3 Xrotation Yrotation Zrotation 
JOINT RThumb_IP
{
OFFSET 40 0 0
CHANNELS 3 Xrotation Yrotation Zrotation 
End Site
{
OFFSET 35 0 0
}
}
}
}
}
}
JOINT RIndex
{
OFFSET 5 0 -10
CHANNELS 3 Xrotation Yrotation Zrotation 
JOINT RIndex_MCP
{
OFFSET 90 0 0
CHANNELS 3 Xrotation Yrotation Zrotation 
JOINT RIndex_IPP
{
OFFSET 45 0 0
CHANNELS 3 Xrotation Yrotation Zrotation 
JOINT RIndex_IDP
{
OFFSET 28 0 0
CHANNELS 3 Xrotation Yrotation Zrotation 
End Site
{
OFFSET 25 0 0
}
}
}
}
}
JOINT RMiddle
{
OFFSET 5 3 0
CHANNELS 3 Xrotation Yrotation Zrotation 
JOINT RMiddle_MCP
{
OFFSET 95 0 0
CHANNELS 3 Xrotation Yrotation Zrotation 
JOINT RMiddle_IPP
{
OFFSET 55 0 0
CHANNELS 3 Xrotation Yrotation Zrotation 
JOINT RMiddle_IDP
{
OFFSET 30 0 0
CHANNELS 3 Xrotation Yrotation Zrotation 
End Site
{
OFFSET 25 0 0
}
}
}
}
}
JOINT RRing
{
OFFSET 5 3 10
CHANNELS 3 Xrotation Yrotation Zrotation 
JOINT RRing_MCP
{
OFFSET 90 0 0
CHANNELS 3 Xrotation Yrotation Zrotation 
JOINT RRing_IPP
{
OFFSET 50 0 0
CHANNELS 3 Xrotation Yrotation Zrotation 
JOINT RRing_IDP
{
OFFSET 30 0 0
CHANNELS 3 Xrotation Yrotation Zrotation 
End Site
{
OFFSET 25 0 0
}
}
}
}
}
JOINT RLittle
{
OFFSET 5 0 20
CHANNELS 3 Xrotation Yrotation Zrotation 
JOINT RLittle_MCP
{
OFFSET 85 0 0
CHANNELS 3 Xrotation Yrotation Zrotation 
JOINT RLittle_IPP
{
OFFSET 40 0 0
CHANNELS 3 Xrotation Yrotation Zrotation 
JOINT RLittle_IDP
{
OFFSET 25 0 0
CHANNELS 3 Xrotation Yrotation Zrotation 
End Site
{
OFFSET 25 0 0
}
}
}
}
}
}
}
}
}
}
}
}
MOTION
Frames: 4
Frame Time: 0.1
-1.899495813333327 -3.511373733333333 -10.57033573333335 219.7024426666668 -216.428328 875.831184 4.513450293333318 -2.132438799999976 19.60383786666668 0 11.83476399999996 0 1.701029013333334 2.872353200000005 1.614372213333334 0 3.395356213333349 0 3.988486639999996 -2.900594639999994 -18.14637679999998 0 11.16999653333333 0 20.38168346666667 8.999440266666671 18.16399013333333 0 -4.929549146666642 0 -8.496026426666699 11.77438453333332 3.009083306666683 -8.784185866666666 3.604495466666677 27.19308053333334 -12.53308186666667 0 -6.363987413333325 43.57047440000003 -7.832614106666621 -35.2338949333333 0 -66.58170933333329 -4.327362133333209 -1.653814800000009 89.84585093333334 0 0 -0.2600044640000001 -0.2384509573333334 0 0 0 141.5744826666667 0 0 0 27.68638906666667 -81.41051493333333 0 0 -16.36304506666667 0 0 -27.96372506666667 0 0 0 0 -4.463145439999999 -34.02095146666667 0 0 -19.98082453333333 0 0 -3.036874933333333 0 5.43 0 0 0 -34.8887992 0 0 -24.03659946666667 0 0 -7.23616912 0 11.67 0 0 7.263144826666666 -42.36024906666667 0 0 -30.52224933333333 0 0 -7.237752346666666 0 21.93 0 0 7.4009348 -24.69846133333333 0 0 -41.51974906666667 0 0 3.353018626663093e-101 -0.8262573546666735 0 4.814111146666677 -97.28612080000003 -39.91576053333329 -60.04110986666672 0 -102.1940533333334 -26.1244111999997 180.3838373333333 -89.71890586666666 0 0 -0.1882920853333331 0.09409074400000003 0 0 0 -141.2220106666666 0 0 0 24.65642480000003 99.3168605333333 0 0 20.36168319999999 0 0 -14.85384506666668 0 0 0 0 3.214865333333332 19.90485439999999 0 0 -29.1825352 0 0 1.85018496 0 -5.43 0 0 0 10.17350479999998 0 0 -28.75721519999999 0 0 -1.786603226666673 0 -11.67 0 0 -6.616392640000003 7.000074240000035 0 0 -34.61108586666661 0 0 -15.78027200000001 0 -21.93 0 0 -12.43842933333338 4.727775253333331 0 0 -44.94065146666659 0 0 -10.3246248
-1.618878906666683 -3.605439759999981 -10.88803533333332 223.4663653333332 -215.039156 876.6798106666665 3.784649840000039 -1.044268920000066 19.67119653333333 0 10.24057000000007 0 1.94669313333332 3.480066879999971 1.826009639999989 0 3.472403173333317 0 3.764713266666684 -2.54477664000003 -17.53170280000003 0 10.87393546666668 0 20.00534840000001 8.92823434666667 17.81044320000001 0 -3.788490053333375 0 -9.956939533333266 11.496488 3.778898506666622 -8.663657893333337 3.967689173333322 27.10692613333334 -12.67178119999999 0 -6.088035693333349 44.54259359999998 -6.097147333333385 -33.89427146666672 0 -64.91559733333339 0.4450307141331811 -1.85621689333333 89.83890079999999 0 0 -0.2629616106666665 -0.2416408546666666 0 0 0 141.5779986666667 0 0 0 27.69449453333333 -81.40940226666667 0 0 -17.00514306666668 0 0 -27.9663988 0 0 0 0 -4.467128453333333 -34.02589773333333 0 0 -19.9824992 0 0 -3.03709988 0 5.43 0 0 0 -34.8718 0 0 -24.03859906666667 0 0 -7.238419079999999 0 11.67 0 0 7.264459853333333 -42.36379826666666 0 0 -30.5246988 0 0 -7.238299733333333 0 21.93 0 0 7.402259826666667 -24.71759373333333 0 0 -41.52319840000001 0 0 9.748671626632102e-100 -0.9815680693333328 0 5.057019893333325 -98.5066785333333 -38.30843186666673 -61.90848386666661 0 -104.1037399999999 -17.77880093333358 179.9290453333333 -89.68940253333334 0 0 -0.1901685599999999 0.09349400213333339 0 0 0 -140.727132 0 0 0 25.4524981333333 98.40082240000004 0 0 20.41228053333333 0 0 -14.873898 0 0 0 0 3.210596453333332 19.85720306666667 0 0 -31.89072146666662 0 0 1.85039988 0 -5.43 0 0 0 10.1725924 0 0 -32.18171946666656 0 0 -1.806927733333333 0 -11.67 0 0 -7.190410839999942 8.657276146666677 0 0 -34.60345666666665 0 0 -15.14590253333333 0 -21.93 0 0 -14.56222199999992 4.776538239999999 0 0 -41.68636440000012 0 0 -10.3254996
-1.458226880000002 -3.536345920000001 -11.0535816 227.4265519999999 -213.820248 877.220696 3.222455200000013 -0.08875937280002558 19.904992 0 8.620208160000043 0 1.931241280000005 4.111074719999977 1.788864320000005 0 3.229024320000021 0 3.625589920000001 -2.349965760000006 -17.08531600000001 0 10.688456 0 19.78688400000001 8.983725599999998 17.56519200000001 0 -3.257845280000001 0 -11.15322559999997 11.15243680000001 4.70759919999997 -8.556873120000006 4.158613839999995 26.73405040000002 -12.90178959999999 0 -5.785828800000008 45.31977119999998 -5.076957440000024 -33.07866720000001 0 -64.53663440000001 1.184878879999995 -1.909415519999998 89.8382256 0 0 -0.267213064 -0.2457330319999999 0 0 0 141.551576 0 0 0 28.28771839999998 -81.04298960000003 0 0 -17.0431776 0 0 -27.962124 0 0 0 0 -4.46512904 -34.0217024 0 0 -19.9794744 0 0 -3.0366124 0 5.43 0 0 0 -34.94728160000002 0 0 -24.0348992 0 0 -7.23721976 0 11.67 0 0 7.259812719999998 -42.3572736 0 0 -30.520124 0 0 -7.23722224 0 21.93 0 0 7.397612719999999 -24.6995496 0 0 -41.5168736 0 0 -3.572458783996686e-97 -0.9227305600000077 0 5.285944399999991 -98.7475896 -36.56215520000006 -62.96483599999998 0 -105.7863999999999 -13.27695360000011 178.973896 -89.62395359999999 0 0 -0.1971595280000001 0.08642063600000036 0 0 0 -140.689336 0 0 0 24.14517679999997 99.83052720000003 0 0 20.56648319999994 0 0 -14.88033280000001 0 0 0 0 3.246961680000021 20.09498559999993 0 0 -34.24324479999984 0 0 1.850994000000001 0 -5.43 0 0 0 10.3769135999999 0 0 -36.55045679999974 0 0 -1.80377744 0 -11.67 0 0 -7.165251680000007 10.4603736 0 0 -36.84959279999993 0 0 -14.60015200000002 0 -21.93 0 0 -15.76693359999998 4.657978399999941 0 0 -39.95305520000006 0 0 -10.3239
-0.827137013333332 -2.84263928 -9.951403466666664 229.1098146666667 -214.2447 878.050888 2.587720093333331 -0.5132676879999984 19.0009372 0 7.689966266666662 0 1.757276906666664 4.003389173333335 1.631090293333331 0 4.940935053333336 0 3.314195013333332 -2.893323253333334 -17.14707266666667 0 10.46525026666667 0 18.77297706666666 8.629295826666667 16.69057653333333 0 -3.403614613333337 0 -12.39046826666667 10.32017306666667 4.585210986666669 -8.350503639999999 4.304473986666667 26.1591476 -13.17251666666667 0 -5.578614293333333 45.92664733333334 -4.502530666666665 -32.909148 0 -64.44780573333333 1.952325866666671 -1.994522813333334 89.83590106666666 0 0 -0.268840832 -0.2481264466666667 0 0 0 141.0695133333333 0 0 0 28.48768906666667 -80.45582866666666 0 0 -17.03454866666667 0 0 -27.9637984 0 0 0 0 -4.466135546666667 -34.02043266666666 0 0 -19.98059893333333 0 0 -3.036819893333333 0 5.43 0 0 0 -34.09548973333333 0 0 -24.03634866666667 0 0 -7.237674653333333 0 11.67 0 0 7.267690013333333 -42.35989786666666 0 0 -30.5218984 0 0 -7.237674653333333 0 21.93 0 0 7.405490013333333 -24.757886 0 0 -41.51934813333333 0 0 3.462518186666942e-95 -0.6058050733333313 0 5.602106266666668 -98.26079399999999 -34.40722079999999 -63.384228 0 -107.4105786666667 -10.24776613333333 178.5401226666667 -89.5998556 0 0 -0.1917502426666667 0.08097854373333331 0 0 0 -140.341968 0 0 0 22.84228306666666 101.2341293333333 0 0 21.09527840000001 0 0 -14.85650266666667 0 0 0 0 3.905258106666674 20.62444653333334 0 0 -35.60861693333333 0 0 1.847975253333334 0 -5.43 0 0 0 11.38125266666668 0 0 -40.16460919999999 0 0 -1.80453616 0 -11.67 0 0 -8.616094213333341 11.85929973333335 0 0 -38.21394106666666 0 0 -14.43395266666666 0 -21.93 0 0 -19.20308400000003 1.411525839999973 0 0 -40.04398759999999 0 0 -10.324646
